<svg id="visual" viewBox="0 0 900 600" width="900" height="600" xmlns="http://www.w3.org/2000/svg" xmlns:xlink="http://www.w3.org/1999/xlink" version="1.1"><g stroke-width="1" stroke-linejoin="bevel"><path d="M372 305L338 312L375 414Z" fill="#083390" stroke="#083390"></path><path d="M338 312L293 377L375 414Z" fill="#16359e" stroke="#16359e"></path><path d="M293 377L328 476L375 414Z" fill="#002248" stroke="#002248"></path><path d="M408 504L504 398L375 414Z" fill="#002657" stroke="#002657"></path><path d="M375 414L504 398L372 305Z" fill="#002657" stroke="#002657"></path><path d="M328 476L408 504L375 414Z" fill="#00172a" stroke="#00172a"></path><path d="M198 277L206 426L293 377Z" fill="#002657" stroke="#002657"></path><path d="M293 377L206 426L328 476Z" fill="#083390" stroke="#083390"></path><path d="M521 260L421 184L372 305Z" fill="#002657" stroke="#002657"></path><path d="M372 305L298 167L338 312Z" fill="#00172a" stroke="#00172a"></path><path d="M338 312L198 277L293 377Z" fill="#083390" stroke="#083390"></path><path d="M504 398L521 260L372 305Z" fill="#002d73" stroke="#002d73"></path><path d="M298 167L198 277L338 312Z" fill="#2536ac" stroke="#2536ac"></path><path d="M421 184L298 167L372 305Z" fill="#002a65" stroke="#002a65"></path><path d="M408 504L486 529L504 398Z" fill="#083390" stroke="#083390"></path><path d="M504 398L577 290L521 260Z" fill="#00101c" stroke="#00101c"></path><path d="M521 260L504 177L421 184Z" fill="#16359e" stroke="#16359e"></path><path d="M629 378L577 290L504 398Z" fill="#16359e" stroke="#16359e"></path><path d="M206 426L222 536L328 476Z" fill="#083390" stroke="#083390"></path><path d="M310 600L401 600L408 504Z" fill="#002a65" stroke="#002a65"></path><path d="M408 504L401 600L486 529Z" fill="#00101c" stroke="#00101c"></path><path d="M583 179L504 177L521 260Z" fill="#00101c" stroke="#00101c"></path><path d="M421 184L372 98L298 167Z" fill="#2536ac" stroke="#2536ac"></path><path d="M298 167L207 184L198 277Z" fill="#003082" stroke="#003082"></path><path d="M198 277L133 425L206 426Z" fill="#001d39" stroke="#001d39"></path><path d="M206 426L133 425L222 536Z" fill="#083390" stroke="#083390"></path><path d="M134 274L133 425L198 277Z" fill="#002a65" stroke="#002a65"></path><path d="M310 600L408 504L328 476Z" fill="#083390" stroke="#083390"></path><path d="M222 536L310 600L328 476Z" fill="#083390" stroke="#083390"></path><path d="M207 184L134 274L198 277Z" fill="#00172a" stroke="#00172a"></path><path d="M501 80L372 98L421 184Z" fill="#003082" stroke="#003082"></path><path d="M298 167L192 138L207 184Z" fill="#002a65" stroke="#002a65"></path><path d="M629 467L629 378L504 398Z" fill="#2536ac" stroke="#2536ac"></path><path d="M282 82L192 138L298 167Z" fill="#083390" stroke="#083390"></path><path d="M207 184L86 161L134 274Z" fill="#003082" stroke="#003082"></path><path d="M577 290L583 179L521 260Z" fill="#083390" stroke="#083390"></path><path d="M504 177L501 80L421 184Z" fill="#001d39" stroke="#001d39"></path><path d="M710 310L583 179L577 290Z" fill="#002d73" stroke="#002d73"></path><path d="M589 600L629 467L486 529Z" fill="#083390" stroke="#083390"></path><path d="M486 529L629 467L504 398Z" fill="#16359e" stroke="#16359e"></path><path d="M401 600L527 600L486 529Z" fill="#00101c" stroke="#00101c"></path><path d="M372 98L282 82L298 167Z" fill="#2536ac" stroke="#2536ac"></path><path d="M125 600L202 600L222 536Z" fill="#083390" stroke="#083390"></path><path d="M222 536L202 600L310 600Z" fill="#002a65" stroke="#002a65"></path><path d="M583 179L501 80L504 177Z" fill="#083390" stroke="#083390"></path><path d="M372 98L310 0L282 82Z" fill="#2536ac" stroke="#2536ac"></path><path d="M527 600L589 600L486 529Z" fill="#083390" stroke="#083390"></path><path d="M0 427L67 514L133 425Z" fill="#00172a" stroke="#00172a"></path><path d="M133 425L67 514L222 536Z" fill="#002a65" stroke="#002a65"></path><path d="M629 467L701 387L629 378Z" fill="#083390" stroke="#083390"></path><path d="M629 378L710 310L577 290Z" fill="#003082" stroke="#003082"></path><path d="M684 516L701 387L629 467Z" fill="#16359e" stroke="#16359e"></path><path d="M67 514L125 600L222 536Z" fill="#002a65" stroke="#002a65"></path><path d="M192 138L86 161L207 184Z" fill="#083390" stroke="#083390"></path><path d="M0 284L0 427L133 425Z" fill="#002a65" stroke="#002a65"></path><path d="M66 87L86 161L192 138Z" fill="#00172a" stroke="#00172a"></path><path d="M701 387L710 310L629 378Z" fill="#002248" stroke="#002248"></path><path d="M583 179L628 114L501 80Z" fill="#003082" stroke="#003082"></path><path d="M589 600L684 516L629 467Z" fill="#001d39" stroke="#001d39"></path><path d="M735 160L628 114L583 179Z" fill="#002657" stroke="#002657"></path><path d="M490 0L377 0L501 80Z" fill="#002d73" stroke="#002d73"></path><path d="M501 80L377 0L372 98Z" fill="#003082" stroke="#003082"></path><path d="M282 82L201 0L192 138Z" fill="#002d73" stroke="#002d73"></path><path d="M377 0L310 0L372 98Z" fill="#16359e" stroke="#16359e"></path><path d="M0 284L133 425L134 274Z" fill="#003082" stroke="#003082"></path><path d="M67 514L0 600L125 600Z" fill="#002248" stroke="#002248"></path><path d="M86 161L0 284L134 274Z" fill="#00101c" stroke="#00101c"></path><path d="M571 0L490 0L501 80Z" fill="#083390" stroke="#083390"></path><path d="M589 600L679 600L684 516Z" fill="#003082" stroke="#003082"></path><path d="M775 497L776 391L701 387Z" fill="#002a65" stroke="#002a65"></path><path d="M701 387L776 391L710 310Z" fill="#16359e" stroke="#16359e"></path><path d="M310 0L201 0L282 82Z" fill="#002d73" stroke="#002d73"></path><path d="M0 427L0 533L67 514Z" fill="#083390" stroke="#083390"></path><path d="M95 0L66 87L192 138Z" fill="#083390" stroke="#083390"></path><path d="M86 161L0 175L0 284Z" fill="#002d73" stroke="#002d73"></path><path d="M0 131L0 175L86 161Z" fill="#003082" stroke="#003082"></path><path d="M775 497L701 387L684 516Z" fill="#002a65" stroke="#002a65"></path><path d="M710 310L735 160L583 179Z" fill="#16359e" stroke="#16359e"></path><path d="M713 0L571 0L628 114Z" fill="#00172a" stroke="#00172a"></path><path d="M628 114L571 0L501 80Z" fill="#002d73" stroke="#002d73"></path><path d="M791 277L735 160L710 310Z" fill="#16359e" stroke="#16359e"></path><path d="M66 87L0 131L86 161Z" fill="#00101c" stroke="#00101c"></path><path d="M679 600L775 497L684 516Z" fill="#16359e" stroke="#16359e"></path><path d="M839 210L791 277L900 316Z" fill="#002248" stroke="#002248"></path><path d="M776 391L791 277L710 310Z" fill="#16359e" stroke="#16359e"></path><path d="M0 533L0 600L67 514Z" fill="#002657" stroke="#002657"></path><path d="M201 0L95 0L192 138Z" fill="#2536ac" stroke="#2536ac"></path><path d="M66 87L0 0L0 131Z" fill="#002248" stroke="#002248"></path><path d="M775 129L724 63L735 160Z" fill="#002657" stroke="#002657"></path><path d="M735 160L724 63L628 114Z" fill="#002d73" stroke="#002d73"></path><path d="M839 210L775 129L735 160Z" fill="#001d39" stroke="#001d39"></path><path d="M791 277L839 210L735 160Z" fill="#002a65" stroke="#002a65"></path><path d="M779 0L713 0L724 63Z" fill="#083390" stroke="#083390"></path><path d="M900 316L791 277L776 391Z" fill="#2536ac" stroke="#2536ac"></path><path d="M779 0L724 63L775 129Z" fill="#00172a" stroke="#00172a"></path><path d="M724 63L713 0L628 114Z" fill="#002d73" stroke="#002d73"></path><path d="M95 0L0 0L66 87Z" fill="#002657" stroke="#002657"></path><path d="M679 600L824 600L775 497Z" fill="#002d73" stroke="#002d73"></path><path d="M900 408L900 316L776 391Z" fill="#002d73" stroke="#002d73"></path><path d="M900 408L776 391L775 497Z" fill="#16359e" stroke="#16359e"></path><path d="M900 507L900 408L775 497Z" fill="#002a65" stroke="#002a65"></path><path d="M900 121L775 129L839 210Z" fill="#001d39" stroke="#001d39"></path><path d="M900 121L779 0L775 129Z" fill="#002657" stroke="#002657"></path><path d="M824 600L900 507L775 497Z" fill="#001d39" stroke="#001d39"></path><path d="M900 316L900 180L839 210Z" fill="#002248" stroke="#002248"></path><path d="M900 180L900 121L839 210Z" fill="#00101c" stroke="#00101c"></path><path d="M824 600L900 600L900 507Z" fill="#00172a" stroke="#00172a"></path><path d="M900 121L900 0L779 0Z" fill="#002d73" stroke="#002d73"></path></g></svg>